<svg xmlns="http://www.w3.org/2000/svg" version="1.1" xmlns:xlink="http://www.w3.org/1999/xlink" xmlns:svgjs="http://svgjs.dev/svgjs" width="2000" height="666" viewBox="0 0 2000 666"><g transform="matrix(1,0,0,1,-1.2121212121212466,-0.741431526737415)"><svg viewBox="0 0 396 132" data-background-color="#9984d4" preserveAspectRatio="xMidYMid meet" height="666" width="2000" xmlns="http://www.w3.org/2000/svg" xmlns:xlink="http://www.w3.org/1999/xlink"><g id="tight-bounds" transform="matrix(1,0,0,1,0.2400000000000091,0.14695039268670484)"><svg viewBox="0 0 395.52 131.70609921462656" height="131.70609921462656" width="395.52"><g><svg viewBox="0 0 625.0456305831801 208.13693829707006" height="131.70609921462656" width="395.52"><g transform="matrix(1,0,0,1,229.5256305831801,58.76803139520556)"><svg viewBox="0 0 395.52 90.60087550665894" height="90.60087550665894" width="395.52"><g id="textblocktransform"><svg viewBox="0 0 395.52 90.60087550665894" height="90.60087550665894" width="395.52" id="textblock"><g><svg viewBox="0 0 395.52 90.60087550665894" height="90.60087550665894" width="395.52"><g transform="matrix(1,0,0,1,0,0)"><svg width="395.52" viewBox="1.95 -36.84 210.8 48.290000000000006" height="90.60087550665894" data-palette-color="#ffffff"><path d="M24.1-9.4L24.1-9.4Q24.1-6.88 22.74-4.54 21.39-2.2 18.47-0.7 15.55 0.81 10.84 0.81L10.84 0.81Q8.15 0.81 6.15 0.34 4.15-0.12 3.05-0.59 1.95-1.05 1.95-1.05L1.95-1.05 1.95-9.91 5.1-9.91 5.76-4.25Q5.81-3.96 6.08-3.61 6.35-3.27 6.59-3.15L6.59-3.15Q6.71-3.13 8.02-2.56 9.33-2 11.65-2L11.65-2Q14.84-2 16.92-3.56 18.99-5.13 18.99-7.91L18.99-7.91Q18.99-9.42 18.15-10.56 17.31-11.69 15.97-12.57 14.62-13.45 13.1-14.17 11.57-14.89 10.21-15.55L10.21-15.55Q8.15-16.53 6.4-17.64 4.64-18.75 3.56-20.39 2.49-22.02 2.49-24.56L2.49-24.56Q2.49-27.54 4-29.74 5.52-31.93 8.13-33.14 10.74-34.35 14.04-34.35L14.04-34.35Q16.72-34.35 18.77-33.83 20.83-33.3 22.41-32.79L22.41-32.79 22.85-32.64 22.85-24.85 20-24.85 19.24-29.64Q19.19-29.98 18.93-30.14 18.68-30.3 18.46-30.52L18.46-30.52Q18.26-30.66 17.25-31.15 16.24-31.64 14.11-31.64L14.11-31.64Q11.11-31.64 9.38-29.97 7.64-28.3 7.64-25.76L7.64-25.76Q7.64-23.46 9.44-21.95 11.23-20.43 14.6-19.14L14.6-19.14Q19.14-17.43 21.62-15.3 24.1-13.16 24.1-9.4ZM42.7-3.05L42.7-3.05 42.7-1.05Q42.7-1.05 41.76-0.63 40.82-0.22 39.29 0.2 37.77 0.61 35.96 0.61L35.96 0.61Q33.15 0.61 31.87-0.72 30.59-2.05 30.59-5L30.59-5 30.59-21.61 27.39-21.61 27.39-23.24 30.81-24.85 33.05-30.15 35.25-30.15 35.25-24.1 42.31-24.1 42.31-21.61 35.25-21.61 35.25-7.64Q35.25-4.66 36.25-3.43 37.25-2.2 39.26-2.2L39.26-2.2Q40.72-2.2 41.71-2.62 42.7-3.05 42.7-3.05ZM70.43-1.95L70.43 0 62.5 0 62.5-2.86Q61.64-2.2 60.32-1.39 59-0.59 57.49 0.01 55.98 0.61 54.49 0.61L54.49 0.61Q51.26 0.61 49.42-1.33 47.58-3.27 47.58-7.5L47.58-7.5 47.58-21.04 44.09-21.04 44.09-22.75 50.24-24.71 52.24-24.71 52.24-8.45Q52.24-5.79 53.33-4.3 54.41-2.81 57.08-2.81L57.08-2.81Q58.61-2.81 60.1-3.33 61.59-3.86 62.5-4.3L62.5-4.3 62.5-21.04 58.98-21.04 58.98-22.75 65.08-24.71 67.13-24.71 67.13-3.2Q67.13-2.73 67.46-2.44 67.79-2.15 68.23-2.1L68.23-2.1 70.43-1.95ZM98.38-1.95L98.38 0 90.52 0 90.52-2.66Q88.81-1.34 86.88-0.37 84.95 0.61 82.78 0.61L82.78 0.61Q80.27 0.61 78.45-0.45 76.63-1.51 75.47-3.27 74.31-5.03 73.75-7.15 73.19-9.28 73.19-11.4L73.19-11.4Q73.19-14.79 74.58-17.83 75.97-20.87 78.8-22.79 81.63-24.71 85.93-24.71L85.93-24.71Q87.13-24.71 88.53-24.48 89.93-24.24 90.52-24.1L90.52-24.1 90.52-33.25 86.74-33.25 86.74-34.91 93.18-36.84 95.18-36.84 95.18-3.2Q95.18-2.17 96.23-2.1L96.23-2.1 98.38-1.95ZM90.52-4.54L90.52-4.54 90.52-21.56Q89.89-21.78 88.63-22.03 87.37-22.29 86.27-22.29L86.27-22.29Q82.56-22.29 80.34-19.54 78.12-16.8 78.12-12.26L78.12-12.26Q78.12-8.18 80.02-5.49 81.93-2.81 85.37-2.81L85.37-2.81Q86.88-2.81 88.21-3.38 89.54-3.96 90.52-4.54ZM125.67-24.1L125.67-22.14 123.06-21.85 113.47 1.54Q113.15 2.34 112.48 3.85 111.81 5.35 110.89 6.92 109.98 8.5 108.93 9.55L108.93 9.55Q108.02 10.45 106.94 10.95 105.85 11.45 104.58 11.45L104.58 11.45Q102.8 11.45 101.86 10.58 100.92 9.72 100.92 8.59L100.92 8.59Q100.92 6.93 102.53 5.59L102.53 5.59 107.22 7.74Q108.05 6.91 108.88 5.49 109.71 4.08 110.38 2.56 111.05 1.05 111.42-0.05L111.42-0.05 102.92-21.85 100.16-22.14 100.16-24.1 111.22-24.1 111.22-22.14 108.83-22Q108.02-21.92 108.02-21.19L108.02-21.19Q108.02-21 108.07-20.9L108.07-20.9 113.88-6.15 119.81-20.9Q119.89-21.04 119.89-21.22L119.89-21.22Q119.89-21.95 119.13-22L119.13-22 116.76-22.14 116.76-24.1 125.67-24.1ZM159.66-16.21L159.66-14.04 157.12-13.79Q156.58-13.77 156.32-13.45 156.07-13.13 156.07-12.74L156.07-12.74 156.07-1.2Q156.07-1.2 154.57-0.7 153.06-0.2 150.67 0.31 148.28 0.81 145.57 0.81L145.57 0.81Q141.39 0.81 138.15-0.63 134.9-2.08 132.67-4.55 130.43-7.03 129.27-10.21 128.11-13.38 128.11-16.85L128.11-16.85Q128.11-22.09 130.3-26.04 132.48-29.98 136.55-32.17 140.61-34.35 146.2-34.35L146.2-34.35Q148.77-34.35 150.94-33.89 153.11-33.42 155.19-32.86L155.19-32.86 156.02-32.64 156.02-24.56 153.01-24.56 152.21-29.05Q152.14-29.49 151.84-29.8 151.55-30.1 151.21-30.25L151.21-30.25Q151.11-30.27 150.92-30.37L150.92-30.37Q150.16-30.71 148.88-31.13 147.59-31.54 146.01-31.54L146.01-31.54Q142.42-31.54 139.66-29.87 136.9-28.2 135.35-24.98 133.8-21.75 133.8-17.09L133.8-17.09Q133.8-9.89 137.28-5.94 140.76-2 146.62-2L146.62-2Q148.28-2 149.56-2.38 150.84-2.76 151.01-2.76L151.01-2.76 151.01-12.74Q151.01-13.13 150.76-13.45 150.5-13.77 149.96-13.79L149.96-13.79 146.62-14.04 146.62-16.21 159.66-16.21ZM183.7-5.54L183.7-2.49Q181.6-1.2 179.17-0.29 176.74 0.61 174.2 0.61L174.2 0.61Q171.18 0.61 168.53-0.74 165.88-2.1 164.24-4.86 162.61-7.62 162.61-11.79L162.61-11.79Q162.61-15.7 164.12-18.6 165.63-21.51 168.3-23.11 170.96-24.71 174.35-24.71L174.35-24.71Q179.01-24.71 181.36-21.81 183.7-18.92 183.7-14.45L183.7-14.45Q183.7-14.21 183.7-13.81 183.7-13.4 183.65-13.06L183.65-13.06 167.44-13.06Q167.44-11.16 167.84-9.27 168.25-7.37 169.2-5.83 170.15-4.3 171.76-3.37 173.37-2.44 175.79-2.44L175.79-2.44Q177.94-2.44 179.98-3.43 182.02-4.42 183.7-5.54L183.7-5.54ZM167.71-15.31L178.7-15.31 178.7-16.41Q178.7-18.87 177.51-20.56 176.33-22.24 173.84-22.24L173.84-22.24Q171.37-22.24 169.64-20.39 167.9-18.53 167.71-15.31L167.71-15.31ZM212.75-1.95L212.75 0 201.72 0 201.72-1.95 203.82-2.1Q204.25-2.15 204.56-2.44 204.87-2.73 204.87-3.2L204.87-3.2 204.87-16.21Q204.87-18.58 203.77-19.81 202.67-21.04 200.06-21.04L200.06-21.04Q198.64-21.04 197.24-20.64 195.83-20.24 194.56-19.6L194.56-19.6 194.56-3.2Q194.56-2.17 195.61-2.1L195.61-2.1 197.71-1.95 197.71 0 186.41 0 186.41-1.95 188.85-2.1Q189.9-2.17 189.9-3.2L189.9-3.2 189.9-20.56 186.41-20.56 186.41-22.19 192.51-24.1 194.56-24.1 194.56-21.61Q196.66-22.8 198.87-23.75 201.08-24.71 202.81-24.71L202.81-24.71Q206.09-24.71 207.8-22.67 209.5-20.63 209.5-16.99L209.5-16.99 209.5-3.2Q209.5-2.73 209.81-2.44 210.11-2.15 210.55-2.1L210.55-2.1 212.75-1.95Z" opacity="1" transform="matrix(1,0,0,1,0,0)" fill="#000000" class="wordmark-text-0" data-fill-palette-color="primary" id="text-0"></path></svg></g></svg></g></svg></g></svg></g><g><svg viewBox="0 0 208.13693829707006 208.13693829707006" height="208.13693829707006" width="208.13693829707006"><g><svg></svg></g><g id="icon-0"><svg viewBox="0 0 208.13693829707006 208.13693829707006" height="208.13693829707006" width="208.13693829707006"><g><rect width="189.2504383404841" height="189.2504383404841" x="9.443249978292982" y="9.443249978292982" fill="#000000" data-fill-palette-color="accent"></rect><rect width="189.2504383404841" height="189.2504383404841" x="18.886499956585975" y="-1.0658141036401503e-14" fill="#000000" opacity="0.5" data-fill-palette-color="accent"></rect></g><g transform="matrix(1,0,0,1,45.36328325409814,26.980714223694264)"><svg viewBox="0 0 117.41037178887377 154.17550984968153" height="154.17550984968153" width="117.41037178887377"><g><svg xmlns="http://www.w3.org/2000/svg" xmlns:xlink="http://www.w3.org/1999/xlink" version="1.1" x="0" y="0" viewBox="18.084 8.089863346222403 63.8313828644866 83.8191366537776" enable-background="new 0 0 100 100" xml:space="preserve" height="154.17550984968153" width="117.41037178887377" class="icon-dxe-0" data-fill-palette-color="quaternary" id="dxe-0"><g fill="#9984d4" data-fill-palette-color="quaternary"><path fill="#ffffff" d="M75.831 81.262C75.37 85.817 71.71 89.089 67.652 88.571L33.122 84.153C29.067 83.632 26.154 79.521 26.615 74.966L32.65 15.451C33.114 10.896 36.773 7.625 40.832 8.144L75.361 12.561C79.418 13.081 82.33 17.193 81.867 21.748z" data-fill-palette-color="quaternary"></path><path fill="#ffffff" d="M28.725 87.08C24.67 86.561 21.756 82.448 22.217 77.893L28.253 18.379A9 9 0 0 1 29.082 15.41H25.475C21.392 15.41 18.084 19.126 18.084 23.711V83.607C18.084 88.193 21.392 91.909 25.475 91.909H60.229C61.095 91.909 61.922 91.732 62.696 91.425z" data-fill-palette-color="quaternary"></path></g></svg></g></svg></g></svg></g></svg></g></svg></g><defs></defs></svg><rect width="395.52" height="131.70609921462656" fill="none" stroke="none" visibility="hidden"></rect></g></svg></g></svg>